<svg width="130" height="130" viewBox="0 0 130 130" fill="none" xmlns="http://www.w3.org/2000/svg">
<path d="M94.7917 65C92.6368 65 90.5702 64.144 89.0464 62.6202C87.5227 61.0965 86.6667 59.0299 86.6667 56.875C86.6667 54.7201 87.5227 52.6535 89.0464 51.1298C90.5702 49.606 92.6368 48.75 94.7917 48.75C96.9465 48.75 99.0132 49.606 100.537 51.1298C102.061 52.6535 102.917 54.7201 102.917 56.875C102.917 59.0299 102.061 61.0965 100.537 62.6202C99.0132 64.144 96.9465 65 94.7917 65ZM78.5417 43.3333C76.3868 43.3333 74.3202 42.4773 72.7964 40.9536C71.2727 39.4298 70.4167 37.3632 70.4167 35.2083C70.4167 33.0534 71.2727 30.9868 72.7964 29.4631C74.3202 27.9394 76.3868 27.0833 78.5417 27.0833C80.6965 27.0833 82.7632 27.9394 84.2869 29.4631C85.8106 30.9868 86.6667 33.0534 86.6667 35.2083C86.6667 37.3632 85.8106 39.4298 84.2869 40.9536C82.7632 42.4773 80.6965 43.3333 78.5417 43.3333ZM51.4583 43.3333C49.3034 43.3333 47.2368 42.4773 45.7131 40.9536C44.1894 39.4298 43.3333 37.3632 43.3333 35.2083C43.3333 33.0534 44.1894 30.9868 45.7131 29.4631C47.2368 27.9394 49.3034 27.0833 51.4583 27.0833C53.6132 27.0833 55.6798 27.9394 57.2036 29.4631C58.7273 30.9868 59.5833 33.0534 59.5833 35.2083C59.5833 37.3632 58.7273 39.4298 57.2036 40.9536C55.6798 42.4773 53.6132 43.3333 51.4583 43.3333ZM35.2083 65C33.0534 65 30.9868 64.144 29.4631 62.6202C27.9394 61.0965 27.0833 59.0299 27.0833 56.875C27.0833 54.7201 27.9394 52.6535 29.4631 51.1298C30.9868 49.606 33.0534 48.75 35.2083 48.75C37.3632 48.75 39.4298 49.606 40.9536 51.1298C42.4773 52.6535 43.3333 54.7201 43.3333 56.875C43.3333 59.0299 42.4773 61.0965 40.9536 62.6202C39.4298 64.144 37.3632 65 35.2083 65ZM65 16.25C52.0707 16.25 39.6709 21.3861 30.5285 30.5285C21.3861 39.6709 16.25 52.0707 16.25 65C16.25 77.9293 21.3861 90.329 30.5285 99.4715C39.6709 108.614 52.0707 113.75 65 113.75C67.1549 113.75 69.2215 112.894 70.7452 111.37C72.269 109.847 73.125 107.78 73.125 105.625C73.125 103.512 72.3125 101.617 71.0125 100.208C69.7667 98.7458 68.9542 96.85 68.9542 94.7917C68.9542 92.6368 69.8102 90.5702 71.3339 89.0464C72.8577 87.5227 74.9243 86.6667 77.0792 86.6667H86.6667C93.8496 86.6667 100.738 83.8132 105.817 78.7341C110.897 73.655 113.75 66.7663 113.75 59.5833C113.75 35.6417 91.9208 16.25 65 16.25Z" fill="#185397"/>
</svg>
