<svg width="130" height="130" viewBox="0 0 130 130" fill="none" xmlns="http://www.w3.org/2000/svg">
<path fill-rule="evenodd" clip-rule="evenodd" d="M58.6924 18.4164C61.0356 16.9983 63.7223 16.2485 66.4613 16.2485C69.2002 16.2485 71.8869 16.9983 74.2301 18.4164L79.747 21.791C87.4874 26.5225 96.303 27.576 105.159 28.6377C108.022 28.9816 110.887 29.3229 113.723 29.7914C113.723 29.7914 113.785 34.7585 113.72 37.0118L113.154 56.3791C112.667 72.9893 105.281 88.7383 92.6116 100.184C86.6343 105.581 80.4512 110.459 73.3472 114.511C71.2533 115.694 68.9061 116.358 66.5026 116.446C64.0991 116.534 61.7096 116.044 59.5347 115.017C51.3312 111.117 44.0674 106.172 37.4347 100.184C24.7651 88.7383 17.3795 72.9893 16.8947 56.3791L16.3314 37.0741C16.2637 34.7883 16.3314 29.7914 16.3314 29.7914C18.6334 29.5206 20.9789 29.2958 23.3432 29.071C33.7784 28.0798 44.5603 27.056 53.4057 21.6502L58.6924 18.4164ZM59.5834 59.5831V40.6248H70.4168V59.5831H89.3751V70.4164H70.4168V89.3748H59.5834V70.4164H40.6251V59.5831H59.5834Z" fill="#185397"/>
</svg>
