<svg width="130" height="130" viewBox="0 0 130 130" fill="none" xmlns="http://www.w3.org/2000/svg">
<path d="M64.9999 37.9167V27.0833C64.9999 21.125 60.1249 16.25 54.1666 16.25H21.6666C15.7083 16.25 10.8333 21.125 10.8333 27.0833V102.917C10.8333 108.875 15.7083 113.75 21.6666 113.75H108.333C114.292 113.75 119.167 108.875 119.167 102.917V48.75C119.167 42.7917 114.292 37.9167 108.333 37.9167H64.9999ZM32.4999 102.917H21.6666V92.0833H32.4999V102.917ZM32.4999 81.25H21.6666V70.4167H32.4999V81.25ZM32.4999 59.5833H21.6666V48.75H32.4999V59.5833ZM32.4999 37.9167H21.6666V27.0833H32.4999V37.9167ZM54.1666 102.917H43.3333V92.0833H54.1666V102.917ZM54.1666 81.25H43.3333V70.4167H54.1666V81.25ZM54.1666 59.5833H43.3333V48.75H54.1666V59.5833ZM54.1666 37.9167H43.3333V27.0833H54.1666V37.9167ZM102.917 102.917H64.9999V92.0833H75.8333V81.25H64.9999V70.4167H75.8333V59.5833H64.9999V48.75H102.917C105.896 48.75 108.333 51.1875 108.333 54.1667V97.5C108.333 100.479 105.896 102.917 102.917 102.917ZM97.4999 59.5833H86.6666V70.4167H97.4999V59.5833ZM97.4999 81.25H86.6666V92.0833H97.4999V81.25Z" fill="#185397"/>
</svg>
