<svg width="130" height="130" viewBox="0 0 130 130" fill="none" xmlns="http://www.w3.org/2000/svg">
<path d="M5.6875 113.75V98.5833C5.6875 95.6042 6.45486 92.8055 7.98958 90.1875C9.52431 87.5694 11.6458 85.5833 14.3542 84.2292C18.9583 81.8819 24.1493 79.8958 29.9271 78.2708C35.7049 76.6458 42.0694 75.8333 49.0208 75.8333C55.9722 75.8333 62.3368 76.6458 68.1146 78.2708C73.8924 79.8958 79.0833 81.8819 83.6875 84.2292C86.3958 85.5833 88.5174 87.5694 90.0521 90.1875C91.5868 92.8055 92.3542 95.6042 92.3542 98.5833V113.75H5.6875ZM49.0208 70.4167C43.0625 70.4167 37.9618 68.2951 33.7188 64.0521C29.4757 59.809 27.3542 54.7083 27.3542 48.75H26C25.1875 48.75 24.5339 48.5026 24.0392 48.0079C23.5444 47.5132 23.2953 46.8578 23.2917 46.0417C23.2881 45.2256 23.5372 44.5701 24.0392 44.0754C24.5411 43.5807 25.1947 43.3333 26 43.3333H27.3542C27.3542 39.2708 28.3472 35.6146 30.3333 32.3646C32.3194 29.1146 34.9375 26.5417 38.1875 24.6458V29.7917C38.1875 30.6042 38.4367 31.2596 38.935 31.7579C39.4333 32.2562 40.0869 32.5036 40.8958 32.5C41.7047 32.4964 42.3601 32.249 42.8621 31.7579C43.364 31.2668 43.6114 30.6114 43.6042 29.7917V22.4792C44.4167 22.2083 45.2743 22.0061 46.1771 21.8725C47.0799 21.7389 48.0278 21.6703 49.0208 21.6667C50.0139 21.6631 50.9618 21.7317 51.8646 21.8725C52.7674 22.0133 53.625 22.2156 54.4375 22.4792V29.7917C54.4375 30.6042 54.6867 31.2596 55.185 31.7579C55.6833 32.2562 56.3369 32.5036 57.1458 32.5C57.9547 32.4964 58.6101 32.249 59.1121 31.7579C59.614 31.2668 59.8614 30.6114 59.8542 29.7917V24.6458C63.1042 26.5417 65.7222 29.1146 67.7083 32.3646C69.6944 35.6146 70.6875 39.2708 70.6875 43.3333H72.0417C72.8542 43.3333 73.5096 43.5825 74.0079 44.0808C74.5062 44.5792 74.7536 45.2328 74.75 46.0417C74.7464 46.8506 74.499 47.506 74.0079 48.0079C73.5168 48.5099 72.8614 48.7572 72.0417 48.75H70.6875C70.6875 54.7083 68.566 59.809 64.3229 64.0521C60.0799 68.2951 54.9792 70.4167 49.0208 70.4167ZM49.0208 59.5833C52 59.5833 54.5513 58.5235 56.6746 56.4037C58.7979 54.284 59.8578 51.7328 59.8542 48.75H38.1875C38.1875 51.7292 39.2492 54.2804 41.3725 56.4037C43.4958 58.5271 46.0453 59.5869 49.0208 59.5833ZM89.6458 81.25L88.8333 77.1875C88.2917 77.0069 87.7735 76.8047 87.2787 76.5808C86.784 76.3569 86.3092 76.0175 85.8542 75.5625L82.0625 76.9167L79.3542 72.0417L82.3333 69.3333V66.0833L79.3542 63.375L82.0625 58.5L85.8542 59.8542C86.2153 59.4931 86.6667 59.1771 87.2083 58.9062C87.75 58.6354 88.2917 58.4097 88.8333 58.2292L89.6458 54.1667H95.0625L95.875 58.2292C96.4167 58.4097 96.9583 58.6354 97.5 58.9062C98.0417 59.1771 98.4931 59.4931 98.8542 59.8542L102.646 58.5L105.354 63.375L102.375 66.0833V69.3333L105.354 72.0417L102.646 76.9167L98.8542 75.5625C98.4028 76.0139 97.9297 76.3533 97.435 76.5808C96.9403 76.8083 96.4203 77.0106 95.875 77.1875L95.0625 81.25H89.6458ZM92.3542 71.7708C93.4375 71.7708 94.3854 71.3646 95.1979 70.5521C96.0104 69.7396 96.4167 68.7917 96.4167 67.7083C96.4167 66.625 96.0104 65.6771 95.1979 64.8646C94.3854 64.0521 93.4375 63.6458 92.3542 63.6458C91.2708 63.6458 90.3229 64.0521 89.5104 64.8646C88.6979 65.6771 88.2917 66.625 88.2917 67.7083C88.2917 68.7917 88.6979 69.7396 89.5104 70.5521C90.3229 71.3646 91.2708 71.7708 92.3542 71.7708ZM102.104 54.1667L101.021 48.4792C100.208 48.2083 99.4644 47.8707 98.7892 47.4662C98.1139 47.0618 97.5036 46.5869 96.9583 46.0417L91.2708 47.9375L87.4792 41.4375L92.0833 37.375C91.9028 36.9236 91.8125 36.5625 91.8125 36.2917V34.125C91.8125 33.8542 91.9028 33.4931 92.0833 33.0417L87.4792 28.9792L91.2708 22.4792L96.9583 24.375C97.5 23.8333 98.1103 23.3585 98.7892 22.9504C99.4681 22.5424 100.212 22.2047 101.021 21.9375L102.104 16.25H109.688L110.771 21.9375C111.583 22.2083 112.329 22.5478 113.008 22.9558C113.687 23.3639 114.295 23.8369 114.833 24.375L120.521 22.4792L124.313 28.9792L119.708 33.0417C119.889 33.4931 119.979 33.8542 119.979 34.125V36.2917C119.979 36.5625 119.889 36.9236 119.708 37.375L124.313 41.4375L120.521 47.9375L114.833 46.0417C114.292 46.5833 113.683 47.0582 113.008 47.4662C112.333 47.8743 111.587 48.2119 110.771 48.4792L109.688 54.1667H102.104ZM105.896 41.9792C107.792 41.9792 109.395 41.3237 110.706 40.0129C112.017 38.7021 112.67 37.1006 112.667 35.2083C112.663 33.3161 112.008 31.7128 110.7 30.3983C109.393 29.0839 107.792 28.4303 105.896 28.4375C104 28.4447 102.397 29.1001 101.086 30.4037C99.775 31.7074 99.1214 33.3089 99.125 35.2083C99.1286 37.1078 99.784 38.7111 101.091 40.0183C102.398 41.3256 104 41.9792 105.896 41.9792Z" fill="#185397"/>
</svg>
