<svg width="24" height="24" viewBox="0 0 24 24" fill="none" xmlns="http://www.w3.org/2000/svg">
<path d="M7.35505 0.00878906H17.155C20.8884 0.00878906 23.9217 3.04212 23.9217 6.77546V16.5755C23.9217 18.3701 23.2088 20.0912 21.9398 21.3602C20.6708 22.6292 18.9497 23.3421 17.155 23.3421H7.35505C3.62171 23.3421 0.588379 20.3088 0.588379 16.5755V6.77546C0.588379 4.98082 1.30129 3.2597 2.57029 1.9907C3.83929 0.721704 5.56041 0.00878906 7.35505 0.00878906ZM7.12171 2.34212C6.0078 2.34212 4.93952 2.78462 4.15186 3.57227C3.36421 4.35993 2.92171 5.42821 2.92171 6.54212V16.8088C2.92171 19.1305 4.80005 21.0088 7.12171 21.0088H17.3884C18.5023 21.0088 19.5706 20.5663 20.3582 19.7786C21.1459 18.991 21.5884 17.9227 21.5884 16.8088V6.54212C21.5884 4.22046 19.71 2.34212 17.3884 2.34212H7.12171ZM18.38 4.09212C18.7668 4.09212 19.1378 4.24577 19.4112 4.51926C19.6847 4.79275 19.8384 5.16368 19.8384 5.55046C19.8384 5.93723 19.6847 6.30816 19.4112 6.58165C19.1378 6.85514 18.7668 7.00879 18.38 7.00879C17.9933 7.00879 17.6223 6.85514 17.3488 6.58165C17.0754 6.30816 16.9217 5.93723 16.9217 5.55046C16.9217 5.16368 17.0754 4.79275 17.3488 4.51926C17.6223 4.24577 17.9933 4.09212 18.38 4.09212ZM12.255 5.84212C13.8021 5.84212 15.2859 6.4567 16.3798 7.55067C17.4738 8.64463 18.0884 10.1284 18.0884 11.6755C18.0884 13.2226 17.4738 14.7063 16.3798 15.8002C15.2859 16.8942 13.8021 17.5088 12.255 17.5088C10.7079 17.5088 9.22422 16.8942 8.13026 15.8002C7.03629 14.7063 6.42171 13.2226 6.42171 11.6755C6.42171 10.1284 7.03629 8.64463 8.13026 7.55067C9.22422 6.4567 10.7079 5.84212 12.255 5.84212ZM12.255 8.17546C11.3268 8.17546 10.4365 8.5442 9.78017 9.20058C9.12379 9.85696 8.75505 10.7472 8.75505 11.6755C8.75505 12.6037 9.12379 13.494 9.78017 14.1503C10.4365 14.8067 11.3268 15.1755 12.255 15.1755C13.1833 15.1755 14.0735 14.8067 14.7299 14.1503C15.3863 13.494 15.755 12.6037 15.755 11.6755C15.755 10.7472 15.3863 9.85696 14.7299 9.20058C14.0735 8.5442 13.1833 8.17546 12.255 8.17546Z" fill="#F8F8F8"/>
</svg>
