<svg width="67" height="68" viewBox="0 0 67 68" fill="none" xmlns="http://www.w3.org/2000/svg">
<path d="M47.2909 15.1272H19.7678C17.9107 15.1272 16.4053 16.6327 16.4053 18.4898V31.3063C16.4053 33.1634 17.9107 34.6689 19.7678 34.6689H47.2909C49.148 34.6689 50.6534 33.1634 50.6534 31.3063V18.4898C50.6534 16.6327 49.148 15.1272 47.2909 15.1272Z" stroke="black" stroke-width="1.39583" stroke-linecap="round" stroke-linejoin="round"/>
<path d="M19.5458 29.3256H24.5261M28.2726 29.2977H38.7301M16.5168 20.5249H50.4872" stroke="black" stroke-width="1.39583" stroke-linecap="round" stroke-linejoin="round"/>
<path d="M33.4999 63.7467C50.0742 63.7467 63.5103 50.3105 63.5103 33.7362C63.5103 17.162 50.0742 3.72583 33.4999 3.72583C16.9256 3.72583 3.4895 17.162 3.4895 33.7362C3.4895 50.3105 16.9256 63.7467 33.4999 63.7467Z" stroke="black" stroke-width="1.39583" stroke-linecap="round" stroke-linejoin="round"/>
<path d="M45.0574 41.6927C46.6109 41.0645 49.3733 40.2298 50.2052 41.2376C51.1041 42.3278 49.9679 44.6951 48.921 46.5334" stroke="black" stroke-width="1.39583" stroke-linecap="round" stroke-linejoin="round"/>
<path d="M16.468 42.4226C18.9233 44.3726 26.1746 47.3569 33.8992 47.3569C41.2636 47.3569 45.7596 44.688 48.0906 43.0577" stroke="black" stroke-width="1.39583" stroke-linecap="round" stroke-linejoin="round"/>
</svg>
