<svg width="67" height="67" viewBox="0 0 67 67" fill="none" xmlns="http://www.w3.org/2000/svg">
<path d="M47.2909 14.8909H19.7678C17.9107 14.8909 16.4053 16.3963 16.4053 18.2534V31.07C16.4053 32.9271 17.9107 34.4325 19.7678 34.4325H47.2909C49.148 34.4325 50.6534 32.9271 50.6534 31.07V18.2534C50.6534 16.3963 49.148 14.8909 47.2909 14.8909Z" stroke="black" stroke-width="1.39583" stroke-linecap="round" stroke-linejoin="round"/>
<path d="M19.5458 29.0893H24.5261M28.2726 29.0614H38.7301M16.5168 20.2886H50.4872" stroke="black" stroke-width="1.39583" stroke-linecap="round" stroke-linejoin="round"/>
<path d="M33.4999 63.5103C50.0742 63.5103 63.5103 50.0742 63.5103 33.4999C63.5103 16.9256 50.0742 3.4895 33.4999 3.4895C16.9256 3.4895 3.4895 16.9256 3.4895 33.4999C3.4895 50.0742 16.9256 63.5103 33.4999 63.5103Z" stroke="black" stroke-width="1.39583" stroke-linecap="round" stroke-linejoin="round"/>
<path d="M45.0574 41.4563C46.6109 40.8282 49.3733 39.9935 50.2052 41.0013C51.1041 42.0914 49.9679 44.4588 48.921 46.2971" stroke="black" stroke-width="1.39583" stroke-linecap="round" stroke-linejoin="round"/>
<path d="M16.468 42.1863C18.9233 44.1363 26.1746 47.1206 33.8992 47.1206C41.2636 47.1206 45.7596 44.4517 48.0906 42.8214" stroke="black" stroke-width="1.39583" stroke-linecap="round" stroke-linejoin="round"/>
</svg>
