<svg width="67" height="68" viewBox="0 0 67 68" fill="none" xmlns="http://www.w3.org/2000/svg">
<path d="M27.7073 59.2104L20.798 46.3687L7.9563 39.4593L12.9115 34.5739L23.0313 36.3187L30.1501 29.2L8.02609 19.7781L13.8886 13.776L40.7584 18.5218L49.4126 9.86766C50.4827 8.79752 51.8087 8.26245 53.3907 8.26245C54.9726 8.26245 56.2987 8.79752 57.3688 9.86766C58.4389 10.9378 58.974 12.2517 58.974 13.8095C58.974 15.3672 58.4389 16.6821 57.3688 17.7541L48.6448 26.4781L53.3907 53.2781L47.4584 59.2104L37.9667 37.0864L30.848 44.2052L32.6625 54.2552L27.7073 59.2104Z" fill="black"/>
</svg>
