<svg width="26" height="25" viewBox="0 0 26 25" fill="none" xmlns="http://www.w3.org/2000/svg">
<path d="M4.49306 0.425293C2.52319 0.425293 0.921631 1.99482 0.921631 3.92529V21.4253C0.921631 23.3558 2.52319 24.9253 4.49306 24.9253H22.3502C24.3201 24.9253 25.9216 23.3558 25.9216 21.4253V3.92529C25.9216 1.99482 24.3201 0.425293 22.3502 0.425293H4.49306ZM21.0723 5.01904L15.2799 11.505L22.0935 20.3315H16.7587L12.5846 14.9776L7.80221 20.3315H5.15154L11.3457 13.3917L4.81114 5.01904H10.2799L14.0578 9.91357L18.4216 5.01904H21.0723ZM18.9629 18.7784L9.4819 6.49014H7.90266L17.4897 18.7784H18.9573H18.9629Z" fill="#F8F8F8"/>
</svg>
